<?xml version="1.0" encoding="utf-8"?>
<!-- Generator: Adobe Illustrator 18.1.1, SVG Export Plug-In . SVG Version: 6.00 Build 0)  -->
<!DOCTYPE svg PUBLIC "-//W3C//DTD SVG 1.1//EN" "http://www.w3.org/Graphics/SVG/1.1/DTD/svg11.dtd">
<svg version="1.1" id="Layer_1" xmlns="http://www.w3.org/2000/svg" xmlns:xlink="http://www.w3.org/1999/xlink" x="0px" y="0px"
	 viewBox="0 0 200 200" enable-background="new 0 0 200 200" xml:space="preserve">
<g>
	<g opacity="0.5">
		<path fill="#FFFFFF" d="M29.2,132.8v21.4c0,1.6-1.4,2.9-3.1,2.9c-1.6,0-3.1-1.4-3.1-2.9v-21.4h-5.7c-1.3,0-2.6-1.3-2.6-2.8
			c0-1.6,1.2-2.8,2.6-2.8h17.7c1.4,0,2.6,1.2,2.6,2.8c0,1.4-1.2,2.8-2.6,2.8H29.2z"/>
		<path fill="#FFFFFF" d="M64.5,154.2c0,1.6-1.4,2.9-3.1,2.9c-1.6,0-3.1-1.4-3.1-2.9V145H47.7v9.2c0,1.6-1.4,2.9-3.1,2.9
			c-1.6,0-3.1-1.4-3.1-2.9v-24.2c0-1.6,1.5-2.9,3.1-2.9c1.7,0,3.1,1.3,3.1,2.9v9.4h10.6v-9.4c0-1.6,1.5-2.9,3.1-2.9
			c1.7,0,3.1,1.3,3.1,2.9V154.2z"/>
		<path fill="#FFFFFF" d="M87.4,127.2c1.4,0,2.6,1.2,2.6,2.8c0,1.4-1.2,2.8-2.6,2.8h-9.9v6.8h8.6c1.4,0,2.6,1.2,2.6,2.7
			c0,1.4-1.2,2.7-2.6,2.7h-8.6v6.4h10.3c1.4,0,2.6,1.2,2.6,2.8c0,1.4-1.2,2.8-2.6,2.8H73.7c-1.6,0-2.5-1.2-2.5-2.7v-24.3
			c0-1.5,0.9-2.7,2.5-2.7H87.4z"/>
	</g>
	<g opacity="0.7">
		<path fill="#FFFFFF" d="M122.1,127.2c1.4,0,2.6,1.2,2.6,2.8c0,1.4-1.2,2.7-2.6,2.8h-9.9v6.8h7.3c1.4,0,2.6,1.2,2.6,2.7
			c0,1.4-1.2,2.7-2.6,2.7h-7.3v9.2c0,1.6-1.4,2.9-3.1,2.9c-1.6,0-3.1-1.4-3.1-2.9v-24.3c0-1.5,0.9-2.7,2.5-2.7H122.1z"/>
		<path fill="#FFFFFF" d="M135.3,154.2c0,1.6-1.4,2.9-3.1,2.9c-1.6,0-3.1-1.4-3.1-2.9v-24.2c0-1.6,1.5-2.9,3.1-2.9
			c1.7,0,3.1,1.3,3.1,2.9V154.2z"/>
		<path fill="#FFFFFF" d="M154.1,154.8c-0.4,1.4-1.6,2.3-3.1,2.3h-0.6c-1.6,0-2.7-0.9-3.1-2.3l-7.4-24c-0.4-1.5,0.6-3.3,2.2-3.7
			c1.6-0.4,3.4,0.5,3.8,2l4.8,18.3l4.8-18.3c0.4-1.5,2.2-2.4,3.8-2c1.6,0.4,2.6,2.2,2.2,3.7L154.1,154.8z"/>
		<path fill="#FFFFFF" d="M182.3,127.2c1.4,0,2.6,1.2,2.6,2.8c0,1.4-1.2,2.8-2.6,2.8h-9.9v6.8h8.6c1.4,0,2.6,1.2,2.6,2.7
			c0,1.4-1.2,2.7-2.6,2.7h-8.6v6.4h10.3c1.4,0,2.6,1.2,2.6,2.8c0,1.4-1.2,2.8-2.6,2.8h-14.1c-1.6,0-2.5-1.2-2.5-2.7v-24.3
			c0-1.5,0.9-2.7,2.5-2.7H182.3z"/>
	</g>
	<g opacity="0.9">
		<path fill="#FFFFFF" d="M17.7,170.2v26.1c0,1.9-1.7,3.6-3.8,3.6c-2,0-3.8-1.7-3.8-3.6v-26.1H3.1c-1.6,0-3.1-1.6-3.1-3.4
			c0-1.9,1.4-3.4,3.1-3.4h21.5c1.7,0,3.1,1.5,3.1,3.4c0,1.7-1.5,3.4-3.1,3.4H17.7z"/>
		<path fill="#FFFFFF" d="M60.7,196.2c0,1.9-1.7,3.6-3.8,3.6c-2,0-3.8-1.7-3.8-3.6V185H40.2v11.2c0,1.9-1.7,3.6-3.8,3.6
			c-2,0-3.8-1.7-3.8-3.6v-29.5c0.1-1.9,1.8-3.6,3.8-3.6c2.1,0,3.8,1.6,3.8,3.6v11.4h12.8v-11.4c0.1-1.9,1.8-3.6,3.8-3.6
			c2.1,0,3.8,1.6,3.8,3.6V196.2z"/>
		<path fill="#FFFFFF" d="M88.5,163.4c1.7,0,3.1,1.5,3.1,3.4c0,1.7-1.5,3.4-3.1,3.4H76.5v8.3h10.4c1.7,0,3.1,1.5,3.1,3.3
			c0,1.7-1.5,3.3-3.1,3.3H76.5v7.8H89c1.7,0,3.1,1.5,3.1,3.4c0,1.7-1.5,3.4-3.1,3.4H71.9c-1.9,0-3-1.5-3-3.3v-29.6
			c0.1-1.8,1.1-3.3,3-3.3H88.5z"/>
		<path fill="#FFFFFF" d="M128.4,165.5c0.9-2,2-2.3,3.5-2.3h0.8c1.8,0,3.2,1.6,3.4,3.4l3.6,29.4c0.2,1.8-1.5,3.7-3.5,3.8
			c-2,0.2-3.9-1.3-4.1-3.3l-2.2-18.7l-7.2,14.8c-0.7,1.5-2,3.2-4.2,3.2c-2.3,0-3.5-1.7-4.2-3.2l-7.2-14.8l-2.2,18.7
			c-0.2,1.9-2,3.4-4.1,3.3c-2-0.2-3.8-2-3.5-3.8l3.6-29.4c0.2-1.8,1.6-3.4,3.4-3.4h0.8c1.5,0,2.6,0.3,3.5,2.3l10,21.2L128.4,165.5z"
			/>
		<path fill="#FFFFFF" d="M166.3,163.4c1.7,0,3.1,1.5,3.1,3.4c0,1.7-1.5,3.4-3.1,3.4h-12.1v8.3h10.4c1.7,0,3.1,1.5,3.1,3.3
			c0,1.7-1.5,3.3-3.1,3.3h-10.4v7.8h12.5c1.7,0,3.1,1.5,3.1,3.4c0,1.7-1.5,3.4-3.1,3.4h-17.1c-1.9,0-3-1.5-3-3.3v-29.6
			c0.1-1.8,1.1-3.3,3-3.3H166.3z"/>
		<path fill="#FFFFFF" d="M176.5,187.9c2-0.8,4,0.3,4.7,1.8c0.8,1.6,2.6,3.4,5.8,3.4c3.1,0,5.2-1.5,5.3-3.8c0.1-1.6-0.7-3-4.4-4.1
			l-4.4-1.2c-8-2.5-9.3-7-9.3-10.3c0-6.4,5.5-10.8,12.4-10.8c5.2,0,9.1,2.3,11,6c0.9,1.7,0.2,3.4-1.2,4.2c-1.9,1.2-3.6,0.7-4.8-0.9
			c-1.5-1.9-3.5-2.5-5.1-2.5c-2.7,0-4.7,1.6-4.7,3.7c0,0.9,0.4,2.7,3.9,3.7l4.3,1.3c8.8,2.5,10,7.4,9.9,10.9
			c-0.1,7.2-6.6,10.6-13,10.6c-6.4,0-11-3.1-12.6-7.8C173.8,190.4,174.7,188.6,176.5,187.9z"/>
	</g>
	<g>
		<path opacity="0.7" fill="#FFFFFF" d="M150.3,18.3c-0.8-0.8-1.7-1.4-2.7-1.7l-30.3-8.2L87,0.2c-2.3-0.6-5.3,0.5-6.6,2.5L45.9,55.2
			c-0.6,0.9-0.8,2-0.9,3.1L150.3,18.3z"/>
		<path opacity="0.55" fill="#FFFFFF" d="M150.9,19c-0.2-0.3-0.4-0.5-0.6-0.8L45,58.2c0,1.4,0.4,2.9,1.2,4L85.5,111
			c0.8,1.1,2.2,1.8,3.6,2L150.9,19z"/>
		<path opacity="0.4" fill="#FFFFFF" d="M89.1,113.1c1.1,0.2,2.2,0.2,3.2-0.2l58.8-22.3c2.2-0.8,4-3.5,3.9-5.9L152,22
			c0-1-0.5-2.1-1.1-3L89.1,113.1z"/>
	</g>
</g>
</svg>
