<svg id="thefivethemes-logo" xmlns="http://www.w3.org/2000/svg" viewBox="0 0 1000.01 120"><title>thefivethemes-logo-small</title><g id="icon"><path id="icon-facet-1" d="M92.3,22.19l23.61-1.6a7.4,7.4,0,0,0-3.54-2.35l-65.15-18A7,7,0,0,0,44.56.06Z" transform="translate(0 0)" fill="#fff" opacity="0.8"/><path id="icon-facet-2" d="M115.91,20.59L92.3,22.19l26.35,72.27a7.5,7.5,0,0,0,1.26-2.92L120,88.93l-2.27-64.12A7.1,7.1,0,0,0,115.91,20.59Z" transform="translate(0 0)" fill="#fff" opacity="0.6"/><path id="icon-facet-3" d="M92.3,22.19L46.76,119.63a7.7,7.7,0,0,0,4.69,0l63.71-22.45a7.34,7.34,0,0,0,3.48-2.73Z" transform="translate(0 0)" fill="#fff" opacity="0.4"/><path id="icon-facet-4" d="M92.3,22.19L0,60.89a7.12,7.12,0,0,0,1.43,4.87l41.7,51.58a7.42,7.42,0,0,0,3.62,2.29Z" transform="translate(0 0)" fill="#fff" opacity="0.5"/><path id="icon-facet-5" d="M0,60.89L92.3,22.19,44.56,0.06a8,8,0,0,0-5.46,3L1.16,57.43A6.76,6.76,0,0,0,0,60.89Z" transform="translate(0 0)" fill="#fff" opacity="0.65"/></g><g id="thefivethemes"><g id="the" opacity="0.7"><path id="t" d="M186,37.07v53c0,4-3.52,7.23-7.78,7.23-4.06,0-7.78-3.42-7.78-7.23v-53H156.29c-3.32,0-6.39-3.32-6.39-6.84a6.67,6.67,0,0,1,6.39-6.94H200a6.67,6.67,0,0,1,6.39,6.94c0,3.52-3.07,6.84-6.39,6.84H186Z" transform="translate(0 0)" fill="#fff"/><path id="h" d="M273.4,90.07c0,4-3.52,7.23-7.78,7.23-4.06,0-7.78-3.42-7.78-7.23V67.24H231.69V90.07c0,4-3.52,7.23-7.78,7.23-4.06,0-7.78-3.42-7.78-7.23V30a7.84,7.84,0,0,1,7.78-7.23c4.26,0,7.78,3.32,7.78,7.23V53.27h26.16V30a7.84,7.84,0,0,1,7.78-7.23c4.26,0,7.78,3.32,7.78,7.23v60Z" transform="translate(0 0)" fill="#fff"/><path id="e" d="M330.07,23.3a6.67,6.67,0,0,1,6.39,6.94c0,3.52-3,6.84-6.39,6.84H305.55V53.91h21.2a6.55,6.55,0,0,1,6.39,6.74,6.78,6.78,0,0,1-6.39,6.74h-21.2v15.8H331A6.64,6.64,0,0,1,337.4,90c0,3.52-3,6.84-6.39,6.84H296.14c-4,0-6.09-3-6.19-6.59V29.93c0.1-3.62,2.23-6.64,6.19-6.64h33.93Z" transform="translate(0 0)" fill="#fff"/></g><g id="five" opacity="0.8"><path id="f" d="M411.76,23.32a6.66,6.66,0,0,1,6.39,6.93,6.94,6.94,0,0,1-6.39,6.83H387.35V53.92h18.12a6.55,6.55,0,0,1,6.39,6.73,6.78,6.78,0,0,1-6.39,6.73H387.35V90.12c0,4-3.52,7.23-7.77,7.23-4.06,0-7.77-3.42-7.77-7.23V30c0.1-3.62,2.23-6.64,6.19-6.64h33.77Z" transform="translate(0 0)" fill="#fff"/><path id="i" d="M444.5,90.07c0,4-3.52,7.23-7.77,7.23-4.06,0-7.77-3.42-7.77-7.23v-60a7.83,7.83,0,0,1,7.77-7.23c4.26,0,7.77,3.32,7.77,7.23v60Z" transform="translate(0 0)" fill="#fff"/><path id="v" d="M491.1,91.66a7.78,7.78,0,0,1-7.77,5.65h-1.49a7.43,7.43,0,0,1-7.68-5.65L455.89,32.18c-1.09-3.71,1.58-8.22,5.45-9.16,4.06-.94,8.42,1.19,9.36,4.9l11.84,45.31,11.84-45.31c0.94-3.71,5.35-5.84,9.36-4.9a7.78,7.78,0,0,1,5.45,9.16Z" transform="translate(0 0)" fill="#fff"/><path id="e-2" data-name="e" d="M560.82,23.32a6.66,6.66,0,0,1,6.39,6.93c0,3.52-3,6.83-6.39,6.83H536.31V53.92H557.5a6.55,6.55,0,0,1,6.39,6.73,6.78,6.78,0,0,1-6.39,6.73H536.31v15.8h25.5A6.64,6.64,0,0,1,568.2,90c0,3.52-3,6.83-6.39,6.83H526.95c-4,0-6.09-3-6.19-6.59V30c0.1-3.62,2.23-6.64,6.19-6.64h33.87Z" transform="translate(0 0)" fill="#fff"/></g><g id="themes"><path id="t-2" data-name="t" d="M633.08,37.26V89.72a7.49,7.49,0,0,1-7.69,7.17c-4,0-7.69-3.38-7.69-7.17V37.26h-14c-3.26,0-6.32-3.26-6.32-6.76a6.62,6.62,0,0,1,6.32-6.85H647a6.62,6.62,0,0,1,6.32,6.85c0,3.5-3.06,6.76-6.32,6.76H633.08Z" transform="translate(0 0)" fill="#fff"/><path id="h-2" data-name="h" d="M719.61,89.68c0,3.91-3.5,7.17-7.69,7.17-4,0-7.69-3.38-7.69-7.17V67.09H678.34V89.68a7.49,7.49,0,0,1-7.69,7.17c-4,0-7.69-3.38-7.69-7.17V30.25a7.83,7.83,0,0,1,7.69-7.17,7.49,7.49,0,0,1,7.69,7.17v23h25.85v-23a7.83,7.83,0,0,1,7.69-7.17,7.49,7.49,0,0,1,7.69,7.17V89.68h0Z" transform="translate(0 0)" fill="#fff"/><path id="e-3" data-name="e" d="M775.66,23.61A6.59,6.59,0,0,1,782,30.45c0,3.5-2.94,6.76-6.32,6.76H751.38V53.89h21a6.49,6.49,0,0,1,6.32,6.64,6.7,6.7,0,0,1-6.32,6.64h-21V82.8h25.25A6.59,6.59,0,0,1,783,89.56c0,3.46-2.94,6.76-6.32,6.76H742.12c-3.91,0-6-2.94-6.12-6.56V30.17c0.12-3.58,2.21-6.56,6.12-6.56h33.54Z" transform="translate(0 0)" fill="#fff"/><path id="m" d="M855.88,27.75c1.89-4,4-4.63,7-4.63h1.57c3.58,0,6.44,3.26,6.85,6.85l7.29,59.23c0.4,3.7-3.06,7.37-7.09,7.69a7.61,7.61,0,0,1-8.21-6.56l-4.43-37.57L844.36,82.64c-1.37,2.94-4,6.44-8.54,6.44s-7.09-3.5-8.46-6.44L812.83,52.76,808.4,90.33a7.64,7.64,0,0,1-8.21,6.56c-4-.32-7.61-4-7.09-7.69L800.35,30c0.4-3.58,3.26-6.85,6.85-6.85h1.57c2.94,0,5.15.64,7,4.63l20.05,42.76Z" transform="translate(0 0)" fill="#fff"/><path id="e-4" data-name="e" d="M932.31,23.61a6.59,6.59,0,0,1,6.32,6.85c0,3.5-2.94,6.76-6.32,6.76H908V53.89h21a6.49,6.49,0,0,1,6.32,6.64A6.7,6.7,0,0,1,929,67.17H908V82.8h25.21a6.59,6.59,0,0,1,6.32,6.76c0,3.46-2.94,6.76-6.32,6.76H898.72c-3.91,0-6-2.94-6.12-6.56V30.17c0.12-3.58,2.21-6.56,6.12-6.56h33.58Z" transform="translate(0 0)" fill="#fff"/><path id="s" d="M952.68,73a7.56,7.56,0,0,1,9.5,3.7c1.57,3.26,5.15,6.85,11.72,6.85,6.24,0,10.55-2.94,10.67-7.69,0.12-3.26-1.37-6.12-8.78-8.21L967,65.24c-16-5-18.8-14.13-18.8-20.7,0-13,11.07-21.74,25-21.74,10.47,0,18.24,4.55,22.15,12.12A6.34,6.34,0,0,1,993,43.46c-3.79,2.42-7.17,1.37-9.7-1.81A12.88,12.88,0,0,0,973,36.57c-5.4,0-9.38,3.18-9.38,7.49,0,1.89.72,5.4,7.81,7.37L980.06,54c17.64,5.07,20.17,15,19.93,21.95-0.2,14.46-13.29,21.3-26.17,21.3S951.67,91,948.49,81.59A6.83,6.83,0,0,1,952.68,73Z" transform="translate(0 0)" fill="#fff"/></g></g></svg>