<svg id="thefivethemes-logo" data-name="thefivethemes-logo" xmlns="http://www.w3.org/2000/svg" viewBox="0 0 999.84 999.8"><title>thefivethemes-logo-large</title><g id="icon"><path id="icon-facet-1" d="M648,101.7l108.22-7.32A33.94,33.94,0,0,0,740,83.6L441.4,1A32.06,32.06,0,0,0,429.22.27Z" transform="translate(0 0)" fill="#fff" opacity="0.8"/><path id="icon-facet-2" d="M756.22,94.38L648,101.7,768.75,432.91a34.4,34.4,0,0,0,5.79-13.36l0.24-12L764.4,113.7C764.14,106.9,761,100,756.22,94.38Z" transform="translate(0 0)" fill="#fff" opacity="0.6"/><path id="icon-facet-3" d="M648,101.7L439.29,548.31c7.12,2.14,14.91,2.33,21.51,0l292-102.9a33.63,33.63,0,0,0,16-12.51Z" transform="translate(0 0)" fill="#fff" opacity="0.4"/><path id="icon-facet-4" d="M648,101.7L225.05,279.09c-0.49,8,1.71,16.36,6.55,22.31L422.7,537.8c4,4.9,10,8.53,16.59,10.51Z" transform="translate(0 0)" fill="#fff" opacity="0.5"/><path id="icon-facet-5" d="M225.05,279.09L648,101.7,429.22,0.27c-9.85,1.19-19.68,6.34-25,13.93l-173.9,249A31,31,0,0,0,225.05,279.09Z" transform="translate(0 0)" fill="#fff" opacity="0.65"/></g><g id="thefivethemes"><g id="the" opacity="0.7"><path id="t" d="M146.2,663.9v107c0,8-7.1,14.6-15.7,14.6-8.2,0-15.7-6.9-15.7-14.6v-107H86.3c-6.7,0-12.9-6.7-12.9-13.8,0-7.8,5.8-14,12.9-14h88.3c7.1,0,12.9,6.2,12.9,14,0,7.1-6.2,13.8-12.9,13.8H146.2Z" transform="translate(0 0)" fill="#fff"/><path id="h" d="M322.7,770.9c0,8-7.1,14.6-15.7,14.6-8.2,0-15.7-6.9-15.7-14.6V724.8H238.5v46.1c0,8-7.1,14.6-15.7,14.6-8.2,0-15.7-6.9-15.7-14.6V649.7c0.2-7.8,7.5-14.6,15.7-14.6,8.6,0,15.7,6.7,15.7,14.6v46.9h52.8V649.7c0.2-7.8,7.5-14.6,15.7-14.6,8.6,0,15.7,6.7,15.7,14.6V770.9Z" transform="translate(0 0)" fill="#fff"/><path id="e" d="M437.1,636.1c7.1,0,12.9,6.2,12.9,14,0,7.1-6,13.8-12.9,13.8H387.6v34h42.8c7.1,0,12.9,6,12.9,13.6,0,7.1-6,13.6-12.9,13.6H387.6V757H439c7.1,0,12.9,6.2,12.9,13.8,0,7.1-6,13.8-12.9,13.8H368.6c-8,0-12.3-6-12.5-13.3V649.5c0.2-7.3,4.5-13.4,12.5-13.4h68.5Z" transform="translate(0 0)" fill="#fff"/></g><g id="five" opacity="0.8"><path id="f" d="M610.4,636.1c7.1,0,12.9,6.2,12.9,14,0,7.1-6,13.6-12.9,13.8H561.1v34h36.6c7.1,0,12.9,6,12.9,13.6,0,7.1-6,13.6-12.9,13.6H561.1V771c0,8-7.1,14.6-15.7,14.6-8.2,0-15.7-6.9-15.7-14.6V649.5c0.2-7.3,4.5-13.4,12.5-13.4h68.2Z" transform="translate(0 0)" fill="#fff"/><path id="i" d="M676.5,770.9c0,8-7.1,14.6-15.7,14.6-8.2,0-15.7-6.9-15.7-14.6V649.7c0.2-7.8,7.5-14.6,15.7-14.6,8.6,0,15.7,6.7,15.7,14.6V770.9Z" transform="translate(0 0)" fill="#fff"/><path id="v" d="M770.6,774.1a15.72,15.72,0,0,1-15.7,11.4h-3c-8.2,0-13.6-4.5-15.5-11.4L699.5,654c-2.2-7.5,3.2-16.6,11-18.5,8.2-1.9,17,2.4,18.9,9.9l23.9,91.5,23.9-91.5c1.9-7.5,10.8-11.8,18.9-9.9,7.8,1.9,13.1,11,11,18.5Z" transform="translate(0 0)" fill="#fff"/><path id="e-2" data-name="e" d="M911.4,636.1c7.1,0,12.9,6.2,12.9,14,0,7.1-6,13.8-12.9,13.8H861.9v34h42.8c7.1,0,12.9,6,12.9,13.6,0,7.1-6,13.6-12.9,13.6H861.9V757h51.5c7.1,0,12.9,6.2,12.9,13.8,0,7.1-6,13.8-12.9,13.8H843c-8,0-12.3-6-12.5-13.3V649.5c0.2-7.3,4.5-13.4,12.5-13.4h68.4Z" transform="translate(0 0)" fill="#fff"/></g><g id="themes"><path id="t-2" data-name="t" d="M88.6,850.9V981.2c0,9.7-8.6,17.8-19.1,17.8-10,0-19.1-8.4-19.1-17.8V850.9H15.7C7.6,850.9,0,842.8,0,834.1c0-9.4,7.1-17,15.7-17H123.2c8.6,0,15.7,7.6,15.7,17,0,8.7-7.6,16.8-15.7,16.8H88.6Z" transform="translate(0 0)" fill="#fff"/><path id="h-2" data-name="h" d="M303.5,981.1c0,9.7-8.7,17.8-19.1,17.8-10,0-19.1-8.4-19.1-17.8V925H201v56.1c0,9.7-8.6,17.8-19.1,17.8-10,0-19.1-8.4-19.1-17.8V833.5c0.3-9.4,9.2-17.8,19.1-17.8,10.5,0,19.1,8.1,19.1,17.8v57.1h64.2V833.5c0.3-9.4,9.2-17.8,19.1-17.8,10.5,0,19.1,8.1,19.1,17.8V981.1h0.1Z" transform="translate(0 0)" fill="#fff"/><path id="e-3" data-name="e" d="M442.7,817c8.7,0,15.7,7.6,15.7,17,0,8.7-7.3,16.8-15.7,16.8H382.4v41.4h52.2c8.6,0,15.7,7.3,15.7,16.5,0,8.6-7.3,16.5-15.7,16.5H382.4V964h62.7c8.6,0,15.7,7.6,15.7,16.8,0,8.6-7.3,16.8-15.7,16.8H359.4c-9.7,0-14.9-7.3-15.2-16.3v-148c0.3-8.9,5.5-16.3,15.2-16.3h83.3Z" transform="translate(0 0)" fill="#fff"/><path id="m" d="M641.9,827.3c4.7-10,10-11.5,17.3-11.5h3.9c8.9,0,16,8.1,17,17l18.1,147.1c1,9.2-7.6,18.3-17.6,19.1-10.2.8-19.4-6.6-20.4-16.3l-11-93.3-35.9,74.2c-3.4,7.3-10,16-21.2,16s-17.6-8.7-21-16L535,889.4l-11,93.3c-1,9.7-10.2,17-20.4,16.3-10-.8-18.9-10-17.6-19.1l18-147.1c1-8.9,8.1-17,17-17h3.9c7.3,0,12.8,1.6,17.3,11.5L592,933.5Z" transform="translate(0 0)" fill="#fff"/><path id="e-4" data-name="e" d="M831.7,817c8.7,0,15.7,7.6,15.7,17,0,8.7-7.3,16.8-15.7,16.8H771.4v41.4h52.2c8.6,0,15.7,7.3,15.7,16.5,0,8.6-7.3,16.5-15.7,16.5H771.4V964H834c8.6,0,15.7,7.6,15.7,16.8,0,8.6-7.3,16.8-15.7,16.8H748.3c-9.7,0-14.9-7.3-15.2-16.3v-148c0.3-8.9,5.5-16.3,15.2-16.3h83.4Z" transform="translate(0 0)" fill="#fff"/><path id="s" d="M882.3,939.7a18.77,18.77,0,0,1,23.6,9.2c3.9,8.1,12.8,17,29.1,17,15.5,0,26.2-7.3,26.5-19.1,0.3-8.1-3.4-15.2-21.8-20.4l-21.8-6c-39.8-12.3-46.7-35.1-46.7-51.4,0-32.2,27.5-54,62.1-54,26,0,45.3,11.3,55,30.1,4.5,8.7.8,17-5.8,21.2-9.4,6-17.8,3.4-24.1-4.5a32,32,0,0,0-25.7-12.6c-13.4,0-23.3,7.9-23.3,18.6,0,4.7,1.8,13.4,19.4,18.3l21.5,6.3c43.8,12.6,50.1,37.2,49.5,54.5-0.5,35.9-33,52.9-65,52.9s-55-15.5-62.9-38.8C869.2,952,873.4,943.1,882.3,939.7Z" transform="translate(0 0)" fill="#fff"/></g></g></svg>