<svg id="thefivethemes-logo" data-name="thefivethemes-logo" xmlns="http://www.w3.org/2000/svg" viewBox="0 0 1000 300"><title>thefivethemes-logo-medium</title><g id="icon"><path id="icon-facet-1" d="M230.82,55.47l59.05-4A18.52,18.52,0,0,0,281,45.6L118.09,0.54a17.5,17.5,0,0,0-6.65-.4Z" transform="translate(0 0)" fill="#fff" opacity="0.8"/><path id="icon-facet-2" d="M289.87,51.48l-59.05,4,65.89,180.67a18.76,18.76,0,0,0,3.16-7.29l0.13-6.52L294.33,62A17.74,17.74,0,0,0,289.87,51.48Z" transform="translate(0 0)" fill="#fff" opacity="0.6"/><path id="icon-facet-3" d="M230.82,55.47L116.94,299.09a19.25,19.25,0,0,0,11.74,0L288,243a18.35,18.35,0,0,0,8.71-6.82Z" transform="translate(0 0)" fill="#fff" opacity="0.4"/><path id="icon-facet-4" d="M230.82,55.47L0,152.24A17.8,17.8,0,0,0,3.61,164.4l104.27,129a18.57,18.57,0,0,0,9.05,5.73Z" transform="translate(0 0)" fill="#fff" opacity="0.5"/><path id="icon-facet-5" d="M0,152.24L230.82,55.47,111.44,0.15c-5.37.65-10.74,3.46-13.65,7.6L2.9,143.57A16.89,16.89,0,0,0,0,152.24Z" transform="translate(0 0)" fill="#fff" opacity="0.65"/></g><g id="thefivethemes"><g id="the" opacity="0.7"><path id="t" d="M445,51.44V121c0,5.2-4.62,9.49-10.21,9.49-5.33,0-10.21-4.49-10.21-9.49V51.44H406.09c-4.36,0-8.39-4.36-8.39-9,0-5.07,3.77-9.1,8.39-9.1H463.5c4.62,0,8.39,4,8.39,9.1,0,4.62-4,9-8.39,9H445Z" transform="translate(0 0)" fill="#fff"/><path id="h" d="M559.78,121c0,5.2-4.62,9.49-10.21,9.49-5.33,0-10.21-4.49-10.21-9.49V91H505v30c0,5.2-4.62,9.49-10.21,9.49-5.33,0-10.21-4.49-10.21-9.49V42.21c0.13-5.07,4.88-9.49,10.21-9.49,5.59,0,10.21,4.36,10.21,9.49V72.7h34.33V42.21c0.13-5.07,4.88-9.49,10.21-9.49,5.59,0,10.21,4.36,10.21,9.49V121Z" transform="translate(0 0)" fill="#fff"/><path id="e" d="M634.15,33.36c4.62,0,8.39,4,8.39,9.1,0,4.62-3.9,9-8.39,9H602v22.1H629.8a8.6,8.6,0,0,1,8.39,8.84c0,4.62-3.9,8.84-8.39,8.84H602V112h33.42c4.62,0,8.39,4,8.39,9,0,4.62-3.9,9-8.39,9H589.62c-5.2,0-8-3.9-8.13-8.65V42.08c0.13-4.75,2.93-8.71,8.13-8.71h44.53Z" transform="translate(0 0)" fill="#fff"/></g><g id="five" opacity="0.8"><path id="f" d="M746.82,33.36c4.62,0,8.39,4,8.39,9.1,0,4.62-3.9,8.84-8.39,9H714.77v22.1h23.79a8.6,8.6,0,0,1,8.39,8.84c0,4.62-3.9,8.84-8.39,8.84H714.77v29.84c0,5.2-4.62,9.49-10.21,9.49-5.33,0-10.21-4.49-10.21-9.49v-79c0.13-4.75,2.93-8.71,8.13-8.71h44.34Z" transform="translate(0 0)" fill="#fff"/><path id="i" d="M789.79,121c0,5.2-4.62,9.49-10.21,9.49-5.33,0-10.21-4.49-10.21-9.49V42.21c0.13-5.07,4.88-9.49,10.21-9.49,5.59,0,10.21,4.36,10.21,9.49V121Z" transform="translate(0 0)" fill="#fff"/><path id="v" d="M851,123.08a10.22,10.22,0,0,1-10.21,7.41h-2c-5.33,0-8.84-2.93-10.08-7.41L804.74,45c-1.43-4.88,2.08-10.79,7.15-12,5.33-1.24,11.05,1.56,12.29,6.44L839.72,98.9l15.54-59.49c1.24-4.88,7-7.67,12.29-6.44,5.07,1.24,8.52,7.15,7.15,12Z" transform="translate(0 0)" fill="#fff"/><path id="e-2" data-name="e" d="M942.51,33.36c4.62,0,8.39,4,8.39,9.1,0,4.62-3.9,9-8.39,9H910.32v22.1h27.83a8.6,8.6,0,0,1,8.39,8.84c0,4.62-3.9,8.84-8.39,8.84H910.32V112h33.48c4.62,0,8.39,4,8.39,9,0,4.62-3.9,9-8.39,9H898c-5.2,0-8-3.9-8.13-8.65V42.08c0.13-4.75,2.93-8.71,8.13-8.71h44.47Z" transform="translate(0 0)" fill="#fff"/></g><g id="themes"><path id="t-2" data-name="t" d="M407.59,173v84.71c0,6.31-5.59,11.57-12.42,11.57-6.5,0-12.42-5.46-12.42-11.57V173H360.19c-5.27,0-10.21-5.27-10.21-10.92C350,156,354.6,151,360.19,151h69.89c5.59,0,10.21,4.94,10.21,11.05,0,5.66-4.94,10.92-10.21,10.92H407.59Z" transform="translate(0 0)" fill="#fff"/><path id="h-2" data-name="h" d="M547.3,257.66c0,6.31-5.66,11.57-12.42,11.57-6.5,0-12.42-5.46-12.42-11.57V221.18h-41.8v36.47c0,6.31-5.59,11.57-12.42,11.57-6.5,0-12.42-5.46-12.42-11.57v-96c0.2-6.11,6-11.57,12.42-11.57,6.83,0,12.42,5.27,12.42,11.57v37.12H522.4V161.7c0.2-6.11,6-11.57,12.42-11.57,6.83,0,12.42,5.27,12.42,11.57v96h0.06Z" transform="translate(0 0)" fill="#fff"/><path id="e-3" data-name="e" d="M637.79,151C643.45,151,648,155.91,648,162c0,5.66-4.75,10.92-10.21,10.92h-39.2v26.92h33.94a10.47,10.47,0,0,1,10.21,10.73c0,5.59-4.75,10.73-10.21,10.73H598.59v25.22h40.76c5.59,0,10.21,4.94,10.21,10.92,0,5.59-4.75,10.92-10.21,10.92H583.64c-6.31,0-9.69-4.75-9.88-10.6V161.57c0.2-5.79,3.58-10.6,9.88-10.6h54.16Z" transform="translate(0 0)" fill="#fff"/><path id="m" d="M767.3,157.67c3.06-6.5,6.5-7.48,11.25-7.48h2.54c5.79,0,10.4,5.27,11.05,11.05l11.77,95.63c0.65,6-4.94,11.9-11.44,12.42s-12.61-4.29-13.26-10.6L772,198,748.7,246.28c-2.21,4.75-6.5,10.4-13.78,10.4s-11.44-5.66-13.65-10.4L697.8,198l-7.15,60.66C690,265,684,269.75,677.39,269.29s-12.29-6.5-11.44-12.42l11.7-95.63c0.65-5.79,5.27-11.05,11.05-11.05h2.54c4.75,0,8.32,1,11.25,7.48l32.38,69Z" transform="translate(0 0)" fill="#fff"/><path id="e-4" data-name="e" d="M890.69,151c5.66,0,10.21,4.94,10.21,11.05,0,5.66-4.75,10.92-10.21,10.92h-39.2v26.92h33.94a10.47,10.47,0,0,1,10.21,10.73c0,5.59-4.75,10.73-10.21,10.73H851.49v25.22h40.7c5.59,0,10.21,4.94,10.21,10.92,0,5.59-4.75,10.92-10.21,10.92H836.47c-6.31,0-9.69-4.75-9.88-10.6V161.57c0.2-5.79,3.58-10.6,9.88-10.6h54.22Z" transform="translate(0 0)" fill="#fff"/><path id="s" d="M923.59,230.74a12.2,12.2,0,0,1,15.34,6c2.54,5.27,8.32,11.05,18.92,11.05,10.08,0,17-4.75,17.23-12.42,0.2-5.27-2.21-9.88-14.17-13.26l-14.17-3.9c-25.87-8-30.36-22.82-30.36-33.42,0-20.93,17.88-35.11,40.37-35.11,16.9,0,29.45,7.35,35.76,19.57A10.24,10.24,0,0,1,988.73,183c-6.11,3.9-11.57,2.21-15.67-2.93a20.79,20.79,0,0,0-16.71-8.19c-8.71,0-15.15,5.14-15.15,12.09,0,3.06,1.17,8.71,12.61,11.9l14,4.1c28.48,8.19,32.57,24.18,32.18,35.43-0.33,23.34-21.45,34.39-42.26,34.39S922,259.74,916.83,244.59A11,11,0,0,1,923.59,230.74Z" transform="translate(0 0)" fill="#fff"/></g></g></svg>